# xmcd
#
# Track frame offsets:
#	150
#	22833
#	45078
#	56520
#	69736
#	89062
#	107111
#	126039
#	140540
#	159248
#	181681
#	193251
#	211713
#	241140
#	258449
#	294264
#
# Disc length: 4145 seconds
#
# Revision: 1
# Processed by: cddbd v1.5.2PL0 Copyright (c) Steve Scherf et al.
# Submitted via: audiograbber 1.83.01
#
DISCID=d5102f10
DTITLE=Lightning Hopkins - Introduction to Lightning Hopkins
DYEAR=2006
DGENRE=
TTITLE0=Mr. Charlie (Parts 1 and 2)
TTITLE1=Got Her Letter This Morning
TTITLE2=You Got to Work to Get Your Pay
TTITLE3=Trouble in Mind
TTITLE4=Vietnam War Blues (Parts 1 and 2)
TTITLE5=You're Gonna Miss Me When I'm Gone
TTITLE6=Little School Girl
TTITLE7=West Texas Blues
TTITLE8=Daddy Was a Preacher
TTITLE9=Rock Me Mamma
TTITLE10=Lightnin' Boogie
TTITLE11=Lightnin' Boogie
TTITLE12=You Treat Po' Lightnin' Wrong [live]
TTITLE13=Mighty Crazy [live]
TTITLE14=Ain't Nothin' Like Whiskey
TTITLE15=Christmas Blues
EXTD=
EXTT0=
EXTT1=
EXTT2=
EXTT3=
EXTT4=
EXTT5=
EXTT6=
EXTT7=
EXTT8=
EXTT9=
EXTT10=
EXTT11=
EXTT12=
EXTT13=
EXTT14=
EXTT15=
PLAYORDER=
